# File created by Blade
# Date/Time:  Fri Jan 16 19:50:04 2015
#---------------------------------------------------------
:version 1.10
:name HOM
:units
  mass 1.0
  length 1.000000
  angle deg
:documentation
     Acclaim Skeleton File
:root
   axis xyz
   order TX TY TZ RX RY RZ
   position 0.000000 0.000000 0.000000
   orientation 0 0 0
:bonedata
   begin
      id 1
      name Spine_dum
      direction 0.000000 1.000000 0.000000
      length 7.067664
      axis 0.0 0.0 0.0 xyz
   end
   begin
      id 2
      name LeftUpLeg_dum
      direction 1.000000 0.000000 0.000000
      length 4.013002
      axis 0.0 0.0 0.0 xyz
   end
   begin
      id 3
      name RightUpLeg_dum
      direction -1.000000 0.000000 0.000000
      length 4.013002
      axis 0.0 0.0 0.0 xyz
   end
   begin
      id 4
      name Spine
      direction 0.000000 1.000000 0.000000
      length 0.000000
      axis 0.0 0.0 0.0 xyz
      dof rx ry rz
   end
   begin
      id 5
      name Spine_dum1
      direction 0.000000 1.000000 0.000000
      length 15.039886
      axis 0.0 0.0 0.0 xyz
   end
   begin
      id 6
      name Spine_dum2
      direction 0.000000 1.000000 0.000000
      length 10.530368
      axis 0.0 0.0 0.0 xyz
   end
   begin
      id 7
      name Spine_dum3
      direction 0.000000 1.000000 0.000000
      length 10.530368
      axis 0.0 0.0 0.0 xyz
   end
   begin
      id 8
      name Head
      direction 0.000000 1.000000 0.000000
      length 4.527550
      axis 0.0 0.0 0.0 xyz
      dof rx ry rz
   end
   begin
      id 9
      name LeftShoulder
      direction 1.000000 0.000000 0.000000
      length 7.028855
      axis 0.0 0.0 -90.0 xyz
      dof rx ry rz
   end
   begin
      id 10
      name LeftArm
      direction 1.000000 0.000000 0.000000
      length 10.797705
      axis 0.0 0.0 -90.0 xyz
      dof rx ry rz
   end
   begin
      id 11
      name LeftForeArm
      direction 1.000000 0.000000 0.000000
      length 7.907442
      axis 0.0 0.0 -90.0 xyz
      dof ry rz rx
   end
   begin
      id 12
      name LeftHand
      direction 0.000000 0.000000 0.000000
      length 0.000000
      axis 0.0 0.0 -90.0 xyz
      dof rx ry rz
   end
   begin
      id 13
      name LeftHand_dum1
      direction 0.000000 0.000000 0.000000
      length 0.000000
      axis 0.0 0.0 -90.0 xyz
   end
   begin
      id 14
      name LeftHand_dum2
      direction 1.000000 0.000000 0.000000
      length 3.937000
      axis 0.0 0.0 -90.0 xyz
   end
   begin
      id 15
      name LeftHandThumb1
      direction 0.000000 0.000000 1.000000
      length 3.937000
      axis 0.0 0.0 -90.0 xyz
      dof rx rz ry
   end
   begin
      id 16
      name RightShoulder
      direction -1.000000 0.000000 0.000000
      length 7.028855
      axis 0.0 0.0 90.0 xyz
      dof rx ry rz
   end
   begin
      id 17
      name RightArm
      direction -1.000000 0.000000 0.000000
      length 10.797705
      axis 0.0 0.0 90.0 xyz
      dof rx ry rz
   end
   begin
      id 18
      name RightForeArm
      direction -1.000000 0.000000 0.000000
      length 7.907442
      axis 0.0 0.0 90.0 xyz
      dof ry rz rx
   end
   begin
      id 19
      name RightHand
      direction 0.000000 0.000000 0.000000
      length 0.000000
      axis 0.0 0.0 90.0 xyz
      dof rx ry rz
   end
   begin
      id 20
      name RightHand_dum1
      direction 0.000000 0.000000 0.000000
      length 0.000000
      axis 0.0 0.0 90.0 xyz
   end
   begin
      id 21
      name RightHand_dum2
      direction -1.000000 0.000000 0.000000
      length 3.937000
      axis 0.0 0.0 90.0 xyz
   end
   begin
      id 22
      name RightHandThumb1
      direction 0.000000 0.000000 1.000000
      length 3.937000
      axis 0.0 0.0 90.0 xyz
      dof rx rz ry
   end
   begin
      id 23
      name LeftUpLeg
      direction 0.000000 -1.000000 0.000000
      length 16.899758
      axis 0.0 0.0 0.0 xyz
      dof rx ry rz
   end
   begin
      id 24
      name LeftLeg
      direction 0.000000 -1.000000 0.000000
      length 17.389183
      axis 0.0 0.0 0.0 xyz
      dof rx ry rz
   end
   begin
      id 25
      name LeftFoot
      direction 0.000000 -0.258819 0.965926
      length 4.924528
      axis 15.0 0.0 0.0 xyz
      dof rx ry rz
   end
   begin
      id 26
      name LeftToeBase
      direction 0.000000 0.000000 1.000000
      length 2.952750
      axis 0.0 0.0 0.0 xyz
      dof rx ry rz
   end
   begin
      id 27
      name RightUpLeg
      direction 0.000000 -1.000000 0.000000
      length 16.899758
      axis 0.0 0.0 0.0 xyz
      dof rx ry rz
   end
   begin
      id 28
      name RightLeg
      direction 0.000000 -1.000000 0.000000
      length 17.389183
      axis 0.0 0.0 0.0 xyz
      dof rx ry rz
   end
   begin
      id 29
      name RightFoot
      direction 0.000000 -0.258819 0.965926
      length 4.924528
      axis 15.0 0.0 0.0 xyz
      dof rx ry rz
   end
   begin
      id 30
      name RightToeBase
      direction 0.000000 0.000000 1.000000
      length 2.952750
      axis 0.0 0.0 0.0 xyz
      dof rx ry rz
   end
:hierarchy
   begin
      root Spine_dum LeftUpLeg_dum RightUpLeg_dum
      Spine_dum Spine
      LeftUpLeg_dum LeftUpLeg
      RightUpLeg_dum RightUpLeg
      Spine Spine_dum1 Spine_dum2 Spine_dum3
      Spine_dum1 Head
      Spine_dum2 LeftShoulder
      Spine_dum3 RightShoulder
      LeftShoulder LeftArm
      LeftArm LeftForeArm
      LeftForeArm LeftHand
      LeftHand LeftHand_dum1 LeftHand_dum2
      LeftHand_dum1 LeftHandThumb1
      RightShoulder RightArm
      RightArm RightForeArm
      RightForeArm RightHand
      RightHand RightHand_dum1 RightHand_dum2
      RightHand_dum1 RightHandThumb1
      LeftUpLeg LeftLeg
      LeftLeg LeftFoot
      LeftFoot LeftToeBase
      RightUpLeg RightLeg
      RightLeg RightFoot
      RightFoot RightToeBase
   end

# File created by Blade
# Date/Time:  Fri Jan 16 19:49:56 2015
# Frame Rate: 120.000 fps
#------------------------------------------------------
:FULLY-SPECIFIED
:DEGREES
90
root 19.460276 35.352012 -21.295492 -171.244115 0.689878 -178.716909
Spine -15.125490 0.545024 0.495985
Head 5.326256 -0.974256 1.836329
LeftShoulder -15.766506 -20.006303 16.127500
LeftArm -3.323974 24.607367 -25.157100
LeftForeArm 12.685921 -0.000000 7.604499
LeftHand -7.868484 0.000000 -5.604839
LeftHandThumb1 -26.253704 0.000000 33.147579
RightShoulder -14.711415 -16.049594 -8.023745
RightArm 4.000279 15.497757 30.053952
RightForeArm -41.677086 -0.000000 18.979497
RightHand -7.509072 -0.000000 -13.381834
RightHandThumb1 -24.326973 -0.000000 -32.862282
LeftUpLeg 0.003263 8.571432 3.187543
LeftLeg -6.416945 -0.000000 0.000000
LeftFoot -20.906364 30.984038 -11.999614
LeftToeBase 27.044034 -0.000000 -0.000000
RightUpLeg -1.301189 -8.903608 -2.569631
RightLeg -3.238323 -0.000000 0.000000
RightFoot -20.006935 -19.198180 16.312378
RightToeBase 25.182059 -0.000000 -0.000000
91
root 19.464012 35.348824 -21.282336 -171.296153 0.764187 -178.739352
Spine -14.839983 0.566612 0.478628
Head 5.089507 -0.975650 1.837920
LeftShoulder -15.763475 -19.601368 15.683724
LeftArm -4.127058 25.953507 -26.723674
LeftForeArm 13.103025 -0.000000 7.735136
LeftHand -7.650868 0.000000 -6.334627
LeftHandThumb1 -26.253704 0.000000 33.147579
RightShoulder -14.831810 -16.657186 -7.641865
RightArm 4.462839 14.247107 31.303166
RightForeArm -41.759425 0.000000 18.648613
RightHand -7.336023 -0.000000 -12.186272
RightHandThumb1 -24.326973 -0.000000 -32.862282
LeftUpLeg 0.080263 8.571549 3.170005
LeftLeg -6.474548 -0.000000 0.000000
LeftFoot -20.881831 31.051387 -11.989984
LeftToeBase 27.004676 -0.000000 -0.000000
RightUpLeg -1.266677 -8.879969 -2.596386
RightLeg -3.264763 -0.000000 0.000000
RightFoot -20.030946 -19.148060 16.269545
RightToeBase 25.524285 -0.000000 -0.000000
92
root 19.467805 35.346944 -21.268220 -171.354666 0.810822 -178.754790
Spine -14.549803 0.582212 0.473608
Head 4.935733 -1.006275 1.812274
LeftShoulder -15.702881 -19.200832 15.200567
LeftArm -5.005246 27.383239 -28.373185
LeftForeArm 13.345678 -0.000000 7.867886
LeftHand -7.489117 -0.000000 -7.209895
LeftHandThumb1 -26.253704 0.000000 33.147579
RightShoulder -14.896403 -17.264657 -7.269683
RightArm 4.787822 12.987052 32.556588
RightForeArm -41.896770 0.000000 18.490190
RightHand -7.197793 -0.000000 -10.760544
RightHandThumb1 -24.326973 -0.000000 -32.862282
LeftUpLeg 0.138485 8.591155 3.158834
LeftLeg -6.508281 -0.000000 0.000000
LeftFoot -20.854341 31.100606 -11.970973
LeftToeBase 27.014489 -0.000000 -0.000000
RightUpLeg -1.221619 -8.864751 -2.626023
RightLeg -3.285601 -0.000000 0.000000
RightFoot -20.024681 -19.065495 16.238300
RightToeBase 25.308350 -0.000000 -0.000000
93
root 19.474875 35.344341 -21.254222 -171.402082 0.828259 -178.772913
Spine -14.262983 0.540212 0.440825
Head 4.712233 -0.886036 1.894164
LeftShoulder -15.660560 -18.725346 14.753531
LeftArm -5.944031 28.908893 -30.158475
LeftForeArm 13.820609 -0.000000 8.092737
LeftHand -7.227207 -0.000000 -7.906487
LeftHandThumb1 -26.253704 0.000000 33.147579
RightShoulder -14.935495 -17.702981 -6.847754
RightArm 5.010554 11.407788 33.677939
RightForeArm -41.967282 -0.000000 18.281661
RightHand -6.802625 -0.000000 -9.340542
RightHandThumb1 -24.326973 -0.000000 -32.862282
LeftUpLeg 0.170171 8.587440 3.154238
LeftLeg -6.521656 -0.000000 0.000000
LeftFoot -20.821609 31.142243 -11.916739
LeftToeBase 27.059871 -0.000000 -0.000000
RightUpLeg -1.171908 -8.823856 -2.653960
RightLeg -3.322708 -0.000000 0.000000
RightFoot -20.030528 -19.015342 16.172297
RightToeBase 25.677423 -0.000000 -0.000000
94
root 19.480662 35.342537 -21.240086 -171.432880 0.850776 -178.769262
Spine -13.992567 0.554552 0.450700
Head 4.481713 -0.971337 1.884074
LeftShoulder -15.605680 -18.321128 14.255121
LeftArm -6.883795 30.435555 -31.954513
LeftForeArm 13.935980 -0.000000 8.295425
LeftHand -6.971729 -0.000000 -8.845624
LeftHandThumb1 -26.253704 0.000000 33.147579
RightShoulder -15.053370 -18.150565 -6.435812
RightArm 5.319692 9.661270 34.797163
RightForeArm -42.021419 -0.000000 18.010711
RightHand -6.469510 -0.000000 -7.952304
RightHandThumb1 -24.326973 -0.000000 -32.862282
LeftUpLeg 0.179939 8.615047 3.164282
LeftLeg -6.520497 -0.000000 0.000000
LeftFoot -20.811132 31.150137 -11.855279
LeftToeBase 27.097313 -0.000000 -0.000000
RightUpLeg -1.159825 -8.805069 -2.652795
RightLeg -3.328485 -0.000000 0.000000
RightFoot -20.031776 -18.967869 16.157649
RightToeBase 25.434238 -0.000000 -0.000000
95
root 19.486552 35.341566 -21.227046 -171.469937 0.862113 -178.768754
Spine -13.717689 0.555081 0.464024
Head 4.275601 -0.904776 1.903077
LeftShoulder -15.518863 -17.933272 13.747785
LeftArm -7.971803 31.952155 -33.879250
LeftForeArm 14.130300 -0.000000 8.614278
LeftHand -6.855654 -0.000000 -9.584051
LeftHandThumb1 -26.253704 0.000000 33.147579
RightShoulder -15.161143 -18.584395 -5.999033
RightArm 5.566423 7.956716 35.869435
RightForeArm -42.027067 -0.000000 17.821126
RightHand -6.036265 -0.000000 -6.389718
RightHandThumb1 -24.326973 -0.000000 -32.862282
LeftUpLeg 0.195722 8.627110 3.175108
LeftLeg -6.519792 -0.000000 0.000000
LeftFoot -20.792863 31.168613 -11.817651
LeftToeBase 27.109727 -0.000000 -0.000000
RightUpLeg -1.126799 -8.765016 -2.658319
RightLeg -3.353585 -0.000000 0.000000
RightFoot -20.026321 -18.928806 16.167837
RightToeBase 25.456624 -0.000000 -0.000000
96
root 19.493371 35.341124 -21.216173 -171.525390 0.868992 -178.755356
Spine -13.424371 0.525266 0.489616
Head 4.068425 -0.929522 1.880114
LeftShoulder -15.563182 -17.457025 13.292892
LeftArm -8.891855 33.479594 -35.872811
LeftForeArm 14.191404 0.000000 8.818873
LeftHand -6.618119 -0.000000 -10.404525
LeftHandThumb1 -26.253704 0.000000 33.147579
RightShoulder -15.204644 -18.908621 -5.562178
RightArm 5.707874 6.388136 36.937553
RightForeArm -42.142485 0.000000 17.577005
RightHand -5.534399 0.000000 -5.001261
RightHandThumb1 -24.326973 -0.000000 -32.862282
LeftUpLeg 0.236560 8.656186 3.205483
LeftLeg -6.515039 -0.000000 0.000000
LeftFoot -20.744965 31.151466 -11.735271
LeftToeBase 27.129420 -0.000000 -0.000000
RightUpLeg -1.075589 -8.681745 -2.658805
RightLeg -3.362753 -0.000000 0.000000
RightFoot -20.026346 -18.909576 16.162620
RightToeBase 25.503767 -0.000000 -0.000000
97
root 19.497465 35.340374 -21.204232 -171.540925 0.853987 -178.751914
Spine -13.165288 0.481752 0.515995
Head 3.836847 -0.805507 1.916147
LeftShoulder -15.604080 -17.057870 12.822113
LeftArm -9.945475 34.994411 -37.943567
LeftForeArm 14.314952 -0.000000 9.097139
LeftHand -6.226928 -0.000000 -11.249457
LeftHandThumb1 -26.253704 0.000000 33.147579
RightShoulder -15.307662 -19.244614 -5.060602
RightArm 5.827944 5.070607 37.978992
RightForeArm -42.055766 -0.000000 17.475950
RightHand -5.190296 -0.000000 -3.594507
RightHandThumb1 -24.326973 -0.000000 -32.862282
LeftUpLeg 0.222971 8.676918 3.213283
LeftLeg -6.507196 -0.000000 0.000000
LeftFoot -20.718988 31.146488 -11.677782
LeftToeBase 27.141005 -0.000000 -0.000000
RightUpLeg -1.061025 -8.707646 -2.652059
RightLeg -3.380623 -0.000000 0.000000
RightFoot -20.005784 -18.841972 16.210913
RightToeBase 25.403840 -0.000000 -0.000000
98
root 19.504444 35.340582 -21.190806 -171.538724 0.825974 -178.743236
Spine -12.952514 0.436549 0.530262
Head 3.641230 -0.877799 1.955458
LeftShoulder -15.596936 -16.687143 12.402244
LeftArm -11.167161 36.513850 -40.181690
LeftForeArm 14.414669 -0.000000 9.433984
LeftHand -5.797698 0.000000 -12.103435
LeftHandThumb1 -26.253704 0.000000 33.147579
RightShoulder -15.388035 -19.548937 -4.611030
RightArm 5.899505 3.954951 39.127604
RightForeArm -41.857180 0.000000 17.221805
RightHand -4.713924 -0.000000 -2.423232
RightHandThumb1 -24.326973 -0.000000 -32.862282
LeftUpLeg 0.181956 8.687529 3.228632
LeftLeg -6.486309 -0.000000 0.000000
LeftFoot -20.698909 31.130521 -11.637702
LeftToeBase 27.158979 -0.000000 -0.000000
RightUpLeg -1.060126 -8.677978 -2.633059
RightLeg -3.408680 -0.000000 0.000000
RightFoot -19.998283 -18.845093 16.249185
RightToeBase 25.596504 -0.000000 -0.000000
99
root 19.509863 35.340042 -21.178863 -171.533190 0.808526 -178.732096
Spine -12.748405 0.370313 0.564547
Head 3.506067 -0.769077 1.984231
LeftShoulder -15.618247 -16.385435 12.004773
LeftArm -12.611174 38.050475 -42.577497
LeftForeArm 14.263867 -0.000000 9.879362
LeftHand -5.489575 -0.000000 -12.865517
LeftHandThumb1 -26.253704 0.000000 33.147579
RightShoulder -15.454851 -19.797524 -4.167401
RightArm 5.875845 3.147573 40.310702
RightForeArm -41.541498 -0.000000 17.061406
RightHand -4.369367 0.000000 -1.204393
RightHandThumb1 -24.326973 -0.000000 -32.862282
LeftUpLeg 0.145309 8.710297 3.236233
LeftLeg -6.481042 -0.000000 0.000000
LeftFoot -20.719766 31.157579 -11.634510
LeftToeBase 27.212616 -0.000000 -0.000000
RightUpLeg -1.077395 -8.642085 -2.619249
RightLeg -3.406109 -0.000000 0.000000
RightFoot -20.014876 -18.829011 16.281883
RightToeBase 25.379798 -0.000000 -0.000000
100
root 19.515219 35.339590 -21.165686 -171.507991 0.782668 -178.734757
Spine -12.581872 0.348063 0.569533
Head 3.410655 -0.806954 2.020281
LeftShoulder -15.564216 -16.101135 11.615456
LeftArm -14.204367 39.678593 -45.144834
LeftForeArm 13.692217 -0.000000 10.326371
LeftHand -5.035400 -0.000000 -13.623283
LeftHandThumb1 -26.253704 0.000000 33.147579
RightShoulder -15.594987 -20.014874 -3.692032
RightArm 5.842571 2.580170 41.545091
RightForeArm -41.007131 -0.000000 16.827869
RightHand -4.071264 -0.000000 -0.458473
RightHandThumb1 -24.326973 -0.000000 -32.862282
LeftUpLeg 0.068341 8.741996 3.235646
LeftLeg -6.435122 -0.000000 0.000000
LeftFoot -20.706680 31.119231 -11.582889
LeftToeBase 27.243201 -0.000000 -0.000000
RightUpLeg -1.117922 -8.623507 -2.610709
RightLeg -3.400840 -0.000000 0.000000
RightFoot -20.036391 -18.834521 16.279094
RightToeBase 25.414258 -0.000000 -0.000000
101
root 19.520322 35.338173 -21.155059 -171.483011 0.746402 -178.729293
Spine -12.420717 0.284708 0.600137
Head 3.327002 -0.740928 2.034079
LeftShoulder -15.516286 -15.920238 11.260699
LeftArm -16.005651 40.975980 -47.834737
LeftForeArm 13.202198 -0.000000 10.794285
LeftHand -4.651414 -0.000000 -14.506469
LeftHandThumb1 -26.253704 0.000000 33.147579
RightShoulder -15.703282 -20.190812 -3.260001
RightArm 5.711838 2.207432 42.857064
RightForeArm -40.846621 -0.000000 16.688135
RightHand -4.093334 0.000000 0.375474
RightHandThumb1 -24.326973 -0.000000 -32.862282
LeftUpLeg 0.004395 8.763432 3.239131
LeftLeg -6.419366 -0.000000 0.000000
LeftFoot -20.724208 31.101982 -11.579382
LeftToeBase 27.293600 -0.000000 -0.000000
RightUpLeg -1.144676 -8.641070 -2.586309
RightLeg -3.417492 -0.000000 0.000000
RightFoot -20.048007 -18.838965 16.288699
RightToeBase 25.432253 -0.000000 -0.000000
